<svg xmlns="http://www.w3.org/2000/svg" viewBox="0 0 437.96 335.18"><title>Asset 1</title><g id="Layer_2" data-name="Layer 2"><g id="Layer_1-2" data-name="Layer 1"><path d="M5.7,191.89c2.31,3.47,5,6.76,6.88,10.43,18.37,35.06,43.68,64.12,75.16,88,51.41,39,109.26,46.11,170.51,33.42,39.86-8.25,72.9-30.47,102.17-57.47,18.25-16.84,69.57-49.5,71.78-55.94,1.08-6-12.57-44.45-18.3-57.6-16-36.79-39.62-68.07-69.33-95.06-18.88-17.14-39.39-31.34-63.63-39.44-31.5-10.52-63.12-15.56-97-10.6-44,6.44-81.46,23.79-112,55.42C50.5,85.2,35.46,111.76,23.31,140.11,17.45,153.77,5.7,188.3,5.7,191.89Z" style="fill:none;stroke:#1d1d1b;stroke-linecap:round;stroke-linejoin:round;stroke-width:11.39871597290039px"/><circle cx="218.98" cy="167.59" r="108.33" style="fill:none;stroke:#1d1d1b;stroke-linecap:round;stroke-linejoin:round;stroke-width:11.39871597290039px"/><circle cx="218.98" cy="167.59" r="66.1" style="fill:#1d1d1b"/></g></g></svg>